<?xml version="1.0" encoding="UTF-8" standalone="no"?>
<!-- Created with Inkscape (http://www.inkscape.org/) -->

<svg
   xmlns:dc="http://purl.org/dc/elements/1.1/"
   xmlns:cc="http://creativecommons.org/ns#"
   xmlns:rdf="http://www.w3.org/1999/02/22-rdf-syntax-ns#"
   xmlns:svg="http://www.w3.org/2000/svg"
   xmlns="http://www.w3.org/2000/svg"
   xmlns:sodipodi="http://sodipodi.sourceforge.net/DTD/sodipodi-0.dtd"
   xmlns:inkscape="http://www.inkscape.org/namespaces/inkscape"
   id="svg2"
   version="1.1"
   inkscape:version="0.91 r13725"
   xml:space="preserve"
   width="379.24377"
   height="266.67279"
   viewBox="0 0 379.24377 266.67279"
   sodipodi:docname="sat_function.svg"><metadata
     id="metadata8"><rdf:RDF><cc:Work
         rdf:about=""><dc:format>image/svg+xml</dc:format><dc:type
           rdf:resource="http://purl.org/dc/dcmitype/StillImage" /><dc:title></dc:title></cc:Work></rdf:RDF></metadata><defs
     id="defs6" /><sodipodi:namedview
     pagecolor="#ffffff"
     bordercolor="#666666"
     borderopacity="1"
     objecttolerance="10"
     gridtolerance="10"
     guidetolerance="10"
     inkscape:pageopacity="0"
     inkscape:pageshadow="2"
     inkscape:window-width="1536"
     inkscape:window-height="801"
     id="namedview4"
     showgrid="false"
     fit-margin-top="0"
     fit-margin-left="0"
     fit-margin-right="0"
     fit-margin-bottom="0"
     inkscape:zoom="0.87636934"
     inkscape:cx="190.07305"
     inkscape:cy="132.52764"
     inkscape:window-x="-8"
     inkscape:window-y="-8"
     inkscape:window-maximized="1"
     inkscape:current-layer="g12" /><g
     id="g10"
     inkscape:groupmode="layer"
     inkscape:label="sat_function"
     transform="matrix(1.25,0,0,-1.25,-1.62695,268.34517)"><g
       id="g12"
       transform="scale(0.1,0.1)"><path
         d="m 363.883,330.293 2633.69,0 0,1786.52 -2633.69,0 0,-1786.52 z"
         style="fill:#ffffff;fill-opacity:1;fill-rule:nonzero;stroke:none"
         id="path16"
         inkscape:connector-curvature="0" /><g
         id="g18"
         transform="scale(0.998677,-1.00132)"><path
           d="m 364.365,-329.856 0,-1784.154"
           style="fill:none;stroke:#dfdfdf;stroke-width:5.00403976;stroke-linecap:butt;stroke-linejoin:round;stroke-miterlimit:10;stroke-dasharray:none;stroke-opacity:1"
           id="path20"
           inkscape:connector-curvature="0" /></g><g
         id="g22"
         transform="scale(0.998677,-1.00132)"><path
           d="m 1023.66,-329.856 0,-1784.154"
           style="fill:none;stroke:#dfdfdf;stroke-width:5.00403976;stroke-linecap:butt;stroke-linejoin:round;stroke-miterlimit:10;stroke-dasharray:none;stroke-opacity:1"
           id="path24"
           inkscape:connector-curvature="0" /></g><g
         id="g26"
         transform="scale(0.998677,-1.00132)"><path
           d="m 1682.95,-329.856 0,-1784.154"
           style="fill:none;stroke:#dfdfdf;stroke-width:5.00403976;stroke-linecap:butt;stroke-linejoin:round;stroke-miterlimit:10;stroke-dasharray:none;stroke-opacity:1"
           id="path28"
           inkscape:connector-curvature="0" /></g><g
         id="g30"
         transform="scale(0.998677,-1.00132)"><path
           d="m 2342.25,-329.856 0,-1784.154"
           style="fill:none;stroke:#dfdfdf;stroke-width:5.00403976;stroke-linecap:butt;stroke-linejoin:round;stroke-miterlimit:10;stroke-dasharray:none;stroke-opacity:1"
           id="path32"
           inkscape:connector-curvature="0" /></g><g
         id="g34"
         transform="scale(0.998677,-1.00132)"><path
           d="m 3001.55,-329.856 0,-1784.154"
           style="fill:none;stroke:#dfdfdf;stroke-width:5.00403976;stroke-linecap:butt;stroke-linejoin:round;stroke-miterlimit:10;stroke-dasharray:none;stroke-opacity:1"
           id="path36"
           inkscape:connector-curvature="0" /></g><g
         id="g38"
         transform="scale(0.998677,-1.00132)"><path
           d="m 3001.55,-329.856 -2637.185,0"
           style="fill:none;stroke:#dfdfdf;stroke-width:5.00403976;stroke-linecap:butt;stroke-linejoin:round;stroke-miterlimit:10;stroke-dasharray:none;stroke-opacity:1"
           id="path40"
           inkscape:connector-curvature="0" /></g><g
         id="g42"
         transform="scale(0.998677,-1.00132)"><path
           d="m 3001.55,-775.895 -2637.185,0"
           style="fill:none;stroke:#dfdfdf;stroke-width:5.00403976;stroke-linecap:butt;stroke-linejoin:round;stroke-miterlimit:10;stroke-dasharray:none;stroke-opacity:1"
           id="path44"
           inkscape:connector-curvature="0" /></g><g
         id="g46"
         transform="scale(0.998677,-1.00132)"><path
           d="m 3001.55,-1221.93 -2637.185,0"
           style="fill:none;stroke:#dfdfdf;stroke-width:5.00403976;stroke-linecap:butt;stroke-linejoin:round;stroke-miterlimit:10;stroke-dasharray:none;stroke-opacity:1"
           id="path48"
           inkscape:connector-curvature="0" /></g><g
         id="g50"
         transform="scale(0.998677,-1.00132)"><path
           d="m 3001.55,-1667.97 -2637.185,0"
           style="fill:none;stroke:#dfdfdf;stroke-width:5.00403976;stroke-linecap:butt;stroke-linejoin:round;stroke-miterlimit:10;stroke-dasharray:none;stroke-opacity:1"
           id="path52"
           inkscape:connector-curvature="0" /></g><g
         id="g54"
         transform="scale(0.998677,-1.00132)"><path
           d="m 3001.55,-2114.01 -2637.185,0"
           style="fill:none;stroke:#dfdfdf;stroke-width:5.00403976;stroke-linecap:butt;stroke-linejoin:round;stroke-miterlimit:10;stroke-dasharray:none;stroke-opacity:1"
           id="path56"
           inkscape:connector-curvature="0" /></g><g
         id="g58"
         transform="scale(0.998677,-1.00132)"><path
           d="m 364.365,-329.856 2637.185,0"
           style="fill:none;stroke:#262626;stroke-width:5.00403976;stroke-linecap:square;stroke-linejoin:round;stroke-miterlimit:10;stroke-dasharray:none;stroke-opacity:1"
           id="path60"
           inkscape:connector-curvature="0" /></g><g
         id="g62"
         transform="scale(0.998677,-1.00132)"><path
           d="m 364.365,-2114.01 2637.185,0"
           style="fill:none;stroke:#262626;stroke-width:5.00403976;stroke-linecap:square;stroke-linejoin:round;stroke-miterlimit:10;stroke-dasharray:none;stroke-opacity:1"
           id="path64"
           inkscape:connector-curvature="0" /></g><g
         id="g66"
         transform="scale(0.998677,-1.00132)"><path
           d="m 364.365,-329.856 0,-26.372"
           style="fill:none;stroke:#262626;stroke-width:5.00403976;stroke-linecap:square;stroke-linejoin:round;stroke-miterlimit:10;stroke-dasharray:none;stroke-opacity:1"
           id="path68"
           inkscape:connector-curvature="0" /></g><g
         id="g70"
         transform="scale(0.998677,-1.00132)"><path
           d="m 1023.66,-329.856 0,-26.372"
           style="fill:none;stroke:#262626;stroke-width:5.00403976;stroke-linecap:square;stroke-linejoin:round;stroke-miterlimit:10;stroke-dasharray:none;stroke-opacity:1"
           id="path72"
           inkscape:connector-curvature="0" /></g><g
         id="g74"
         transform="scale(0.998677,-1.00132)"><path
           d="m 1682.95,-329.856 0,-26.372"
           style="fill:none;stroke:#262626;stroke-width:5.00403976;stroke-linecap:square;stroke-linejoin:round;stroke-miterlimit:10;stroke-dasharray:none;stroke-opacity:1"
           id="path76"
           inkscape:connector-curvature="0" /></g><g
         id="g78"
         transform="scale(0.998677,-1.00132)"><path
           d="m 2342.25,-329.856 0,-26.372"
           style="fill:none;stroke:#262626;stroke-width:5.00403976;stroke-linecap:square;stroke-linejoin:round;stroke-miterlimit:10;stroke-dasharray:none;stroke-opacity:1"
           id="path80"
           inkscape:connector-curvature="0" /></g><g
         id="g82"
         transform="scale(0.998677,-1.00132)"><path
           d="m 3001.55,-329.856 0,-26.372"
           style="fill:none;stroke:#262626;stroke-width:5.00403976;stroke-linecap:square;stroke-linejoin:round;stroke-miterlimit:10;stroke-dasharray:none;stroke-opacity:1"
           id="path84"
           inkscape:connector-curvature="0" /></g><g
         id="g86"
         transform="scale(0.998677,-1.00132)"><path
           d="m 364.365,-2114.01 0,26.37"
           style="fill:none;stroke:#262626;stroke-width:5.00403976;stroke-linecap:square;stroke-linejoin:round;stroke-miterlimit:10;stroke-dasharray:none;stroke-opacity:1"
           id="path88"
           inkscape:connector-curvature="0" /></g><g
         id="g90"
         transform="scale(0.998677,-1.00132)"><path
           d="m 1023.66,-2114.01 0,26.37"
           style="fill:none;stroke:#262626;stroke-width:5.00403976;stroke-linecap:square;stroke-linejoin:round;stroke-miterlimit:10;stroke-dasharray:none;stroke-opacity:1"
           id="path92"
           inkscape:connector-curvature="0" /></g><g
         id="g94"
         transform="scale(0.998677,-1.00132)"><path
           d="m 1682.95,-2114.01 0,26.37"
           style="fill:none;stroke:#262626;stroke-width:5.00403976;stroke-linecap:square;stroke-linejoin:round;stroke-miterlimit:10;stroke-dasharray:none;stroke-opacity:1"
           id="path96"
           inkscape:connector-curvature="0" /></g><g
         id="g98"
         transform="scale(0.998677,-1.00132)"><path
           d="m 2342.25,-2114.01 0,26.37"
           style="fill:none;stroke:#262626;stroke-width:5.00403976;stroke-linecap:square;stroke-linejoin:round;stroke-miterlimit:10;stroke-dasharray:none;stroke-opacity:1"
           id="path100"
           inkscape:connector-curvature="0" /></g><g
         id="g102"
         transform="scale(0.998677,-1.00132)"><path
           d="m 3001.55,-2114.01 0,26.37"
           style="fill:none;stroke:#262626;stroke-width:5.00403976;stroke-linecap:square;stroke-linejoin:round;stroke-miterlimit:10;stroke-dasharray:none;stroke-opacity:1"
           id="path104"
           inkscape:connector-curvature="0" /></g><g
         id="g106"
         transform="scale(10,10)"><text
           transform="matrix(0.997357,0,0,-1,28.8887,18.193)"
           style="font-variant:normal;font-weight:normal;font-size:10.0255003px;font-family:Helvetica;-inkscape-font-specification:Helvetica;writing-mode:lr-tb;fill:#262626;fill-opacity:1;fill-rule:nonzero;stroke:none"
           id="text108"><tspan
             x="0 3.3384914 8.9126692 68.722801 72.061287 136.54359 202.55971 265.86865 271.44281"
             y="0"
             sodipodi:role="line"
             id="tspan110">-10-50510</tspan></text>
</g><path
         d="m 1677.34,18.7383 c 0.12,0.8125 0.62,1.2187 1.5,1.2187 0.06,0 0.73,-0.3437 2.01,-1.0312 1.29,-0.6914 2.69,-1.3164 4.22,-1.8789 1.53,-0.5664 3.08,-0.8477 4.64,-0.8477 1.31,0 2.44,0.5625 3.38,1.6914 0.94,1.1289 1.41,2.3516 1.41,3.668 0,1.9414 -1,3.2891 -3,4.043 l -18.38,7.1406 c -3.19,1.2539 -5.81,3.1016 -7.87,5.543 -2.07,2.4492 -3.1,5.2382 -3.1,8.3671 0,2.7579 0.75,5.6368 2.25,8.6446 1.5,3.0078 3.41,5.7344 5.72,8.1836 2.31,2.4414 4.79,4.4453 7.41,6.0117 -2.12,1.2539 -3.77,2.8633 -4.93,4.8359 -1.15,1.9805 -1.73,4.1875 -1.73,6.6289 0,2.5078 0.52,4.8594 1.55,7.0508 1.03,2.1953 2.44,4.1836 4.21,5.9688 1.79,1.7851 3.79,3.3047 6,4.5586 2.22,1.25 4.49,2.1918 6.8,2.8198 -0.38,1.504 -0.56,2.852 -0.56,4.036 0,3.953 0.75,5.925 2.25,5.925 0.37,0 0.7,-0.14 0.98,-0.425 0.28,-0.282 0.43,-0.641 0.43,-1.078 0,-0.313 -0.1,-1.079 -0.28,-2.301 -0.2,-1.227 -0.29,-1.961 -0.29,-2.211 0,-1.254 0.16,-2.352 0.47,-3.289 1.87,0.379 3.69,0.566 5.44,0.566 6.56,0 9.84,-1.004 9.84,-3.0077 0,-2.4453 -3.66,-3.668 -10.97,-3.668 -2.25,0 -4.09,0.75 -5.53,2.254 -2.06,-1.0625 -3.97,-2.5665 -5.71,-4.5118 -1.76,-1.9414 -3.13,-4.1015 -4.13,-6.4843 -1,-2.3829 -1.5,-4.7618 -1.5,-7.1407 0,-3.3828 0.97,-6.1093 2.91,-8.1797 2.56,0.879 5.15,1.3165 7.78,1.3165 6.56,0 9.84,-1.0352 9.84,-3.1016 0,-2.3789 -3.66,-3.5703 -10.97,-3.5703 -3,0 -5.81,0.4375 -8.43,1.3125 -3.19,-1.6875 -6.13,-4.3008 -8.82,-7.8438 -2.68,-3.539 -4.03,-6.9414 -4.03,-10.1992 0,-2.1328 0.77,-3.9922 2.3,-5.5898 1.53,-1.6016 3.42,-2.8711 5.67,-3.8086 l 19.13,-7.5196 c 1.68,-0.625 3.04,-1.625 4.07,-3.0078 1.03,-1.3789 1.55,-2.9765 1.55,-4.7929 0,-2.9414 -1.14,-5.6211 -3.42,-8.0352 -2.28,-2.4141 -4.9,-3.6211 -7.83,-3.6211 -0.94,0 -2.44,0.2344 -4.5,0.707 -2.06,0.4727 -3.87,1.1133 -5.44,1.9258 -1.56,0.8164 -2.34,1.7227 -2.34,2.7266 z m 8.72,51.039 c 0.94,-0.3789 2.12,-0.5664 3.56,-0.5664 3.5,0 6,0.2188 7.5,0.6563 -1.37,0.3125 -3.62,0.4687 -6.75,0.4687 -1.19,0 -2.62,-0.1875 -4.31,-0.5586 z m 8.34,29.5118 c 0.63,-0.3789 1.5,-0.5664 2.63,-0.5664 3.43,0 5.9,0.1875 7.4,0.5664 l -10.03,0"
         style="fill:#262626;fill-opacity:1;fill-rule:nonzero;stroke:none"
         id="path112"
         inkscape:connector-curvature="0" /><g
         id="g114"
         transform="scale(0.998677,-1.00132)"><path
           d="m 364.365,-329.856 0,-1784.154"
           style="fill:none;stroke:#262626;stroke-width:5.00403976;stroke-linecap:square;stroke-linejoin:round;stroke-miterlimit:10;stroke-dasharray:none;stroke-opacity:1"
           id="path116"
           inkscape:connector-curvature="0" /></g><g
         id="g118"
         transform="scale(0.998677,-1.00132)"><path
           d="m 3001.55,-329.856 0,-1784.154"
           style="fill:none;stroke:#262626;stroke-width:5.00403976;stroke-linecap:square;stroke-linejoin:round;stroke-miterlimit:10;stroke-dasharray:none;stroke-opacity:1"
           id="path120"
           inkscape:connector-curvature="0" /></g><g
         id="g122"
         transform="scale(0.998677,-1.00132)"><path
           d="m 364.365,-329.856 26.371,0"
           style="fill:none;stroke:#262626;stroke-width:5.00403976;stroke-linecap:square;stroke-linejoin:round;stroke-miterlimit:10;stroke-dasharray:none;stroke-opacity:1"
           id="path124"
           inkscape:connector-curvature="0" /></g><g
         id="g126"
         transform="scale(0.998677,-1.00132)"><path
           d="m 364.365,-775.895 26.371,0"
           style="fill:none;stroke:#262626;stroke-width:5.00403976;stroke-linecap:square;stroke-linejoin:round;stroke-miterlimit:10;stroke-dasharray:none;stroke-opacity:1"
           id="path128"
           inkscape:connector-curvature="0" /></g><g
         id="g130"
         transform="scale(0.998677,-1.00132)"><path
           d="m 364.365,-1221.93 26.371,0"
           style="fill:none;stroke:#262626;stroke-width:5.00403976;stroke-linecap:square;stroke-linejoin:round;stroke-miterlimit:10;stroke-dasharray:none;stroke-opacity:1"
           id="path132"
           inkscape:connector-curvature="0" /></g><g
         id="g134"
         transform="scale(0.998677,-1.00132)"><path
           d="m 364.365,-1667.97 26.371,0"
           style="fill:none;stroke:#262626;stroke-width:5.00403976;stroke-linecap:square;stroke-linejoin:round;stroke-miterlimit:10;stroke-dasharray:none;stroke-opacity:1"
           id="path136"
           inkscape:connector-curvature="0" /></g><g
         id="g138"
         transform="scale(0.998677,-1.00132)"><path
           d="m 364.365,-2114.01 26.371,0"
           style="fill:none;stroke:#262626;stroke-width:5.00403976;stroke-linecap:square;stroke-linejoin:round;stroke-miterlimit:10;stroke-dasharray:none;stroke-opacity:1"
           id="path140"
           inkscape:connector-curvature="0" /></g><g
         id="g142"
         transform="scale(0.998677,-1.00132)"><path
           d="m 3001.55,-329.856 -26.37,0"
           style="fill:none;stroke:#262626;stroke-width:5.00403976;stroke-linecap:square;stroke-linejoin:round;stroke-miterlimit:10;stroke-dasharray:none;stroke-opacity:1"
           id="path144"
           inkscape:connector-curvature="0" /></g><g
         id="g146"
         transform="scale(0.998677,-1.00132)"><path
           d="m 3001.55,-775.895 -26.37,0"
           style="fill:none;stroke:#262626;stroke-width:5.00403976;stroke-linecap:square;stroke-linejoin:round;stroke-miterlimit:10;stroke-dasharray:none;stroke-opacity:1"
           id="path148"
           inkscape:connector-curvature="0" /></g><g
         id="g150"
         transform="scale(0.998677,-1.00132)"><path
           d="m 3001.55,-1221.93 -26.37,0"
           style="fill:none;stroke:#262626;stroke-width:5.00403976;stroke-linecap:square;stroke-linejoin:round;stroke-miterlimit:10;stroke-dasharray:none;stroke-opacity:1"
           id="path152"
           inkscape:connector-curvature="0" /></g><g
         id="g154"
         transform="scale(0.998677,-1.00132)"><path
           d="m 3001.55,-1667.97 -26.37,0"
           style="fill:none;stroke:#262626;stroke-width:5.00403976;stroke-linecap:square;stroke-linejoin:round;stroke-miterlimit:10;stroke-dasharray:none;stroke-opacity:1"
           id="path156"
           inkscape:connector-curvature="0" /></g><g
         id="g158"
         transform="scale(0.998677,-1.00132)"><path
           d="m 3001.55,-2114.01 -26.37,0"
           style="fill:none;stroke:#262626;stroke-width:5.00403976;stroke-linecap:square;stroke-linejoin:round;stroke-miterlimit:10;stroke-dasharray:none;stroke-opacity:1"
           id="path160"
           inkscape:connector-curvature="0" /></g><g
         id="g162"
         transform="scale(10,10)"><text
           transform="matrix(0.997357,0,0,-1,22.7895,28.8199)"
           style="font-variant:normal;font-weight:normal;font-size:10.0255003px;font-family:Helvetica;-inkscape-font-specification:Helvetica;writing-mode:lr-tb;fill:#262626;fill-opacity:1;fill-rule:nonzero;stroke:none"
           id="text164"><tspan
             x="0 3.3384914"
             y="0"
             sodipodi:role="line"
             id="tspan166">-1</tspan><tspan
             x="-8.4210901 -5.0825987 0.4915795 3.2786684"
             y="-44.662498"
             sodipodi:role="line"
             id="tspan168">-0.5</tspan><tspan
             x="3.6091101"
             y="-89.324997"
             id="tspan170">0</tspan><tspan
             x="-4.8123698 0.76180798 3.548897"
             y="-133.9879"
             sodipodi:role="line"
             id="tspan172">0.5</tspan><tspan
             x="3.6091101"
             y="-178.65041"
             id="tspan174">1</tspan></text>
</g><path
         d="m 108.91,1216.22 -20.0623,5.18 c 0,-3.2 -0.5938,-6.26 -1.7813,-9.17 -1.1875,-2.91 -2.9219,-5.28 -5.1992,-7.09 -2.2813,-1.82 -5.0469,-2.73 -8.2969,-2.73 -1.875,0 -3.9961,0.33 -6.375,0.98 -2.375,0.66 -4.5625,1.37 -6.5625,2.12 -2,0.76 -4.6562,1.76 -7.9648,3.01 -2.625,1 -4.7813,1.5 -6.4688,1.5 -2.125,0 -3.1836,-0.81 -3.1836,-2.44 0,-2.82 1.4649,-5.15 4.4024,-7 2.9336,-1.85 6.2187,-3.21 9.8437,-4.09 0.4375,-0.19 0.6563,-0.5 0.6563,-0.94 l 0,-1.22 c 0,-0.63 -0.3438,-0.95 -1.0352,-0.95 l -0.2812,0 c -4.3125,1.19 -8.1211,2.98 -11.4336,5.37 -3.3125,2.38 -4.9688,5.41 -4.9688,9.11 0,2.57 0.8438,4.73 2.5313,6.49 1.6875,1.75 3.8437,2.63 6.4687,2.63 1.3125,0 2.7188,-0.28 4.2188,-0.85 3.2461,-1.25 5.8398,-2.25 7.7812,-3 1.9336,-0.76 4.1211,-1.46 6.5625,-2.12 2.4336,-0.66 4.6211,-0.99 6.5547,-0.99 3.5,0 6.2227,1.1 8.1602,3.29 1.9375,2.2 3.1211,5.08 3.5586,8.65 l -72.461,18.24 c -0.3711,0.12 -0.5586,0.4 -0.5586,0.84 l 0,1.32 c 0,0.56 0.3438,0.84 1.0274,0.84 l 72.2734,-18.14 0,1.22 c 0,3.08 -0.9062,6.29 -2.7187,9.64 -1.8086,3.35 -4.168,6.42 -7.0704,9.21 -2.9101,2.78 -6.0507,4.98 -9.4257,6.58 -3.375,1.59 -6.5,2.39 -9.3711,2.39 -2.1875,0 -3.8907,-0.34 -5.1133,-1.03 -1.2188,-0.69 -2.4844,-1.6 -3.7969,-2.73 -1.3125,-1.13 -2.3711,-1.69 -3.1836,-1.69 -1.375,0 -2.6445,0.58 -3.7969,1.74 -1.1562,1.16 -1.7343,2.43 -1.7343,3.81 0,1.75 0.7812,3 2.3437,3.76 1.5625,0.75 3.3399,1.12 5.3399,1.12 2.1289,0 4.2539,-0.2 6.3789,-0.6 2.1211,-0.41 4.6211,-0.99 7.4961,-1.74 6.5664,-1.7 12.4687,-5.14 17.7187,-10.34 1.8125,-1.82 3.4492,-3.81 4.918,-5.97 1.4726,-2.16 2.6445,-4.45 3.5156,-6.86 0.875,-2.41 1.3125,-4.87 1.3125,-7.38 l 0,-1.69 20.3441,-5.07 c 0.379,-0.2 0.566,-0.51 0.566,-0.95 l 0,-1.22 c 0,-0.31 -0.109,-0.56 -0.332,-0.75 -0.219,-0.19 -0.484,-0.29 -0.797,-0.29"
         style="fill:#262626;fill-opacity:1;fill-rule:nonzero;stroke:none"
         id="path176"
         inkscape:connector-curvature="0" /><g
         id="g178"
         transform="scale(0.998677,-1.00132)"><path
           d="m 364.365,-329.856 435.134,0 13.186,-0.008 65.931,0 13.185,-0.004 13.186,0 13.185,-0.008 13.186,0 13.185,-0.004 13.185,-0.008 13.19,-0.004 13.185,-0.007 13.186,-0.012 13.181,-0.012 13.19,-0.011 13.18,-0.02 13.19,-0.023 13.19,-0.032 13.18,-0.027 13.19,-0.043 13.19,-0.047 13.18,-0.062 13.19,-0.07 13.18,-0.09 13.19,-0.109 13.19,-0.133 13.18,-0.16 13.19,-0.195 13.18,-0.246 13.19,-0.292 13.18,-0.355 13.19,-0.441 13.18,-0.538 13.19,-0.656 13.19,-0.792 13.18,-0.975 13.19,-1.19 13.19,-1.447 13.18,-1.767 13.19,-2.154 13.18,-2.621 13.19,-3.195 13.19,-3.882 13.18,-4.72 13.19,-5.731 13.18,-6.951 13.19,-8.411 13.18,-10.17 13.19,-12.254 13.19,-14.734 13.18,-17.664 13.19,-21.078 13.18,-25.037 13.19,-29.582 13.19,-34.704 13.18,-40.411 13.19,-46.622 13.19,-53.223 13.18,-60.053 13.19,-66.849 13.18,-73.302 13.19,-79.067 13.18,-83.801 13.19,-87.16 13.18,-88.91 13.19,-88.92 13.19,-87.16 13.18,-83.8 13.19,-79.07 13.18,-73.29 13.19,-66.85 13.19,-60.06 13.18,-53.22 13.19,-46.62 13.19,-40.42 13.18,-34.7 13.19,-29.58 13.18,-25.04 13.19,-21.08 13.18,-17.66 13.19,-14.73 13.19,-12.26 13.18,-10.17 13.19,-8.41 13.18,-6.95 13.19,-5.73 13.18,-4.72 13.19,-3.88 13.19,-3.2 13.18,-2.62 13.19,-2.15 13.19,-1.77 13.18,-1.45 13.19,-1.19 13.18,-0.97 13.19,-0.79 13.19,-0.66 13.18,-0.54 13.19,-0.44 13.18,-0.35 13.19,-0.3 13.18,-0.24 13.19,-0.19 13.18,-0.17 13.19,-0.13 13.19,-0.11 13.18,-0.09 13.19,-0.07 13.19,-0.06 13.18,-0.05 13.19,-0.04 13.18,-0.03 13.19,-0.03 13.19,-0.02 13.18,-0.02 13.19,-0.01 13.18,-0.02 13.19,-0.01 13.18,-0.01 13.19,0 13.19,-0.01 13.18,0 13.19,0 13.18,-0.01 13.19,0 13.19,0 65.93,0 13.18,-0.01 435.14,0"
           style="fill:none;stroke:#0072bd;stroke-width:20.02219963;stroke-linecap:butt;stroke-linejoin:round;stroke-miterlimit:10;stroke-dasharray:none;stroke-opacity:1"
           id="path180"
           inkscape:connector-curvature="0" /></g></g></g></svg>