<?xml version="1.0" encoding="UTF-8" standalone="no"?>
<!-- Created with Inkscape (http://www.inkscape.org/) -->

<svg
   xmlns:dc="http://purl.org/dc/elements/1.1/"
   xmlns:cc="http://creativecommons.org/ns#"
   xmlns:rdf="http://www.w3.org/1999/02/22-rdf-syntax-ns#"
   xmlns:svg="http://www.w3.org/2000/svg"
   xmlns="http://www.w3.org/2000/svg"
   xmlns:sodipodi="http://sodipodi.sourceforge.net/DTD/sodipodi-0.dtd"
   xmlns:inkscape="http://www.inkscape.org/namespaces/inkscape"
   id="svg2"
   version="1.1"
   inkscape:version="0.91 r13725"
   xml:space="preserve"
   width="378.00284"
   height="266.80075"
   viewBox="0 0 378.00283 266.80075"
   sodipodi:docname="states2.svg"><metadata
     id="metadata8"><rdf:RDF><cc:Work
         rdf:about=""><dc:format>image/svg+xml</dc:format><dc:type
           rdf:resource="http://purl.org/dc/dcmitype/StillImage" /><dc:title></dc:title></cc:Work></rdf:RDF></metadata><defs
     id="defs6" /><sodipodi:namedview
     pagecolor="#ffffff"
     bordercolor="#666666"
     borderopacity="1"
     objecttolerance="10"
     gridtolerance="10"
     guidetolerance="10"
     inkscape:pageopacity="0"
     inkscape:pageshadow="2"
     inkscape:window-width="1536"
     inkscape:window-height="801"
     id="namedview4"
     showgrid="false"
     fit-margin-top="0"
     fit-margin-left="0"
     fit-margin-right="0"
     fit-margin-bottom="0"
     inkscape:zoom="0.81252868"
     inkscape:cx="189.53225"
     inkscape:cy="132.6556"
     inkscape:window-x="-8"
     inkscape:window-y="88"
     inkscape:window-maximized="1"
     inkscape:current-layer="g10" /><g
     id="g10"
     inkscape:groupmode="layer"
     inkscape:label="states2"
     transform="matrix(1.25,0,0,-1.25,-1.2302516,268.34517)"><path
       inkscape:connector-curvature="0"
       id="path16"
       style="fill:#ffffff;fill-opacity:1;fill-rule:nonzero;stroke:none"
       d="m 36.3883,33.0293 263.369,0 0,178.652 -263.369,0 0,-178.652 z" /><g
       transform="scale(0.0998677,-0.100132)"
       id="g18"><path
         inkscape:connector-curvature="0"
         id="path20"
         style="fill:none;stroke:#dfdfdf;stroke-width:5.00403976;stroke-linecap:butt;stroke-linejoin:round;stroke-miterlimit:10;stroke-dasharray:none;stroke-opacity:1"
         d="m 364.365,-329.856 0,-1784.154" /></g><g
       transform="scale(0.0998677,-0.100132)"
       id="g22"><path
         inkscape:connector-curvature="0"
         id="path24"
         style="fill:none;stroke:#dfdfdf;stroke-width:5.00403976;stroke-linecap:butt;stroke-linejoin:round;stroke-miterlimit:10;stroke-dasharray:none;stroke-opacity:1"
         d="m 889.177,-329.856 0,-1784.154" /></g><g
       transform="scale(0.0998677,-0.100132)"
       id="g26"><path
         inkscape:connector-curvature="0"
         id="path28"
         style="fill:none;stroke:#dfdfdf;stroke-width:5.00403976;stroke-linecap:butt;stroke-linejoin:round;stroke-miterlimit:10;stroke-dasharray:none;stroke-opacity:1"
         d="m 1413.99,-329.856 0,-1784.154" /></g><g
       transform="scale(0.0998677,-0.100132)"
       id="g30"><path
         inkscape:connector-curvature="0"
         id="path32"
         style="fill:none;stroke:#dfdfdf;stroke-width:5.00403976;stroke-linecap:butt;stroke-linejoin:round;stroke-miterlimit:10;stroke-dasharray:none;stroke-opacity:1"
         d="m 1938.8,-329.856 0,-1784.154" /></g><g
       transform="scale(0.0998677,-0.100132)"
       id="g34"><path
         inkscape:connector-curvature="0"
         id="path36"
         style="fill:none;stroke:#dfdfdf;stroke-width:5.00403976;stroke-linecap:butt;stroke-linejoin:round;stroke-miterlimit:10;stroke-dasharray:none;stroke-opacity:1"
         d="m 2463.62,-329.856 0,-1784.154" /></g><g
       transform="scale(0.0998677,-0.100132)"
       id="g38"><path
         inkscape:connector-curvature="0"
         id="path40"
         style="fill:none;stroke:#dfdfdf;stroke-width:5.00403976;stroke-linecap:butt;stroke-linejoin:round;stroke-miterlimit:10;stroke-dasharray:none;stroke-opacity:1"
         d="m 2988.43,-329.856 0,-1784.154" /></g><g
       transform="scale(0.0998677,-0.100132)"
       id="g42"><path
         inkscape:connector-curvature="0"
         id="path44"
         style="fill:none;stroke:#dfdfdf;stroke-width:5.00403976;stroke-linecap:butt;stroke-linejoin:round;stroke-miterlimit:10;stroke-dasharray:none;stroke-opacity:1"
         d="m 3001.55,-329.856 -2637.185,0" /></g><g
       transform="scale(0.0998677,-0.100132)"
       id="g46"><path
         inkscape:connector-curvature="0"
         id="path48"
         style="fill:none;stroke:#dfdfdf;stroke-width:5.00403976;stroke-linecap:butt;stroke-linejoin:round;stroke-miterlimit:10;stroke-dasharray:none;stroke-opacity:1"
         d="m 3001.55,-627.217 -2637.185,0" /></g><g
       transform="scale(0.0998677,-0.100132)"
       id="g50"><path
         inkscape:connector-curvature="0"
         id="path52"
         style="fill:none;stroke:#dfdfdf;stroke-width:5.00403976;stroke-linecap:butt;stroke-linejoin:round;stroke-miterlimit:10;stroke-dasharray:none;stroke-opacity:1"
         d="m 3001.55,-924.573 -2637.185,0" /></g><g
       transform="scale(0.0998677,-0.100132)"
       id="g54"><path
         inkscape:connector-curvature="0"
         id="path56"
         style="fill:none;stroke:#dfdfdf;stroke-width:5.00403976;stroke-linecap:butt;stroke-linejoin:round;stroke-miterlimit:10;stroke-dasharray:none;stroke-opacity:1"
         d="m 3001.55,-1221.93 -2637.185,0" /></g><g
       transform="scale(0.0998677,-0.100132)"
       id="g58"><path
         inkscape:connector-curvature="0"
         id="path60"
         style="fill:none;stroke:#dfdfdf;stroke-width:5.00403976;stroke-linecap:butt;stroke-linejoin:round;stroke-miterlimit:10;stroke-dasharray:none;stroke-opacity:1"
         d="m 3001.55,-1519.29 -2637.185,0" /></g><g
       transform="scale(0.0998677,-0.100132)"
       id="g62"><path
         inkscape:connector-curvature="0"
         id="path64"
         style="fill:none;stroke:#dfdfdf;stroke-width:5.00403976;stroke-linecap:butt;stroke-linejoin:round;stroke-miterlimit:10;stroke-dasharray:none;stroke-opacity:1"
         d="m 3001.55,-1816.65 -2637.185,0" /></g><g
       transform="scale(0.0998677,-0.100132)"
       id="g66"><path
         inkscape:connector-curvature="0"
         id="path68"
         style="fill:none;stroke:#dfdfdf;stroke-width:5.00403976;stroke-linecap:butt;stroke-linejoin:round;stroke-miterlimit:10;stroke-dasharray:none;stroke-opacity:1"
         d="m 3001.55,-2114.01 -2637.185,0" /></g><g
       transform="scale(0.0998677,-0.100132)"
       id="g70"><path
         inkscape:connector-curvature="0"
         id="path72"
         style="fill:none;stroke:#262626;stroke-width:5.00403976;stroke-linecap:square;stroke-linejoin:round;stroke-miterlimit:10;stroke-dasharray:none;stroke-opacity:1"
         d="m 364.365,-329.856 2637.185,0" /></g><g
       transform="scale(0.0998677,-0.100132)"
       id="g74"><path
         inkscape:connector-curvature="0"
         id="path76"
         style="fill:none;stroke:#262626;stroke-width:5.00403976;stroke-linecap:square;stroke-linejoin:round;stroke-miterlimit:10;stroke-dasharray:none;stroke-opacity:1"
         d="m 364.365,-329.856 0,-26.372" /></g><g
       transform="scale(0.0998677,-0.100132)"
       id="g78"><path
         inkscape:connector-curvature="0"
         id="path80"
         style="fill:none;stroke:#262626;stroke-width:5.00403976;stroke-linecap:square;stroke-linejoin:round;stroke-miterlimit:10;stroke-dasharray:none;stroke-opacity:1"
         d="m 889.177,-329.856 0,-26.372" /></g><g
       transform="scale(0.0998677,-0.100132)"
       id="g82"><path
         inkscape:connector-curvature="0"
         id="path84"
         style="fill:none;stroke:#262626;stroke-width:5.00403976;stroke-linecap:square;stroke-linejoin:round;stroke-miterlimit:10;stroke-dasharray:none;stroke-opacity:1"
         d="m 1413.99,-329.856 0,-26.372" /></g><g
       transform="scale(0.0998677,-0.100132)"
       id="g86"><path
         inkscape:connector-curvature="0"
         id="path88"
         style="fill:none;stroke:#262626;stroke-width:5.00403976;stroke-linecap:square;stroke-linejoin:round;stroke-miterlimit:10;stroke-dasharray:none;stroke-opacity:1"
         d="m 1938.8,-329.856 0,-26.372" /></g><g
       transform="scale(0.0998677,-0.100132)"
       id="g90"><path
         inkscape:connector-curvature="0"
         id="path92"
         style="fill:none;stroke:#262626;stroke-width:5.00403976;stroke-linecap:square;stroke-linejoin:round;stroke-miterlimit:10;stroke-dasharray:none;stroke-opacity:1"
         d="m 2463.62,-329.856 0,-26.372" /></g><g
       transform="scale(0.0998677,-0.100132)"
       id="g94"><path
         inkscape:connector-curvature="0"
         id="path96"
         style="fill:none;stroke:#262626;stroke-width:5.00403976;stroke-linecap:square;stroke-linejoin:round;stroke-miterlimit:10;stroke-dasharray:none;stroke-opacity:1"
         d="m 2988.43,-329.856 0,-26.372" /></g><g
       id="g98"><text
         id="text100"
         style="font-variant:normal;font-weight:normal;font-size:10.0255003px;font-family:Helvetica;-inkscape-font-specification:Helvetica;writing-mode:lr-tb;fill:#262626;fill-opacity:1;fill-rule:nonzero;stroke:none"
         transform="matrix(0.997357,0,0,-1,33.3883,18.193)"><tspan
           id="tspan102"
           sodipodi:role="line"
           y="0"
           x="0 52.55006 105.10012 157.65019 210.20024 260.04352 265.61771">0246810</tspan></text>
<text
         id="text104"
         style="font-variant:normal;font-weight:normal;font-size:11.02770042px;font-family:Helvetica;-inkscape-font-specification:Helvetica;writing-mode:lr-tb;fill:#262626;fill-opacity:1;fill-rule:nonzero;stroke:none"
         transform="matrix(0.997357,0,0,-1,148.27385,3.5563)"><tspan
           id="tspan106"
           sodipodi:role="line"
           y="0"
           x="0 6.7379246 9.1860743 18.372149 24.50355 27.56925 31.241474 36.755325">Time (s)</tspan></text>
</g><g
       transform="scale(0.0998677,-0.100132)"
       id="g108"><path
         inkscape:connector-curvature="0"
         id="path110"
         style="fill:none;stroke:#262626;stroke-width:5.00403976;stroke-linecap:square;stroke-linejoin:round;stroke-miterlimit:10;stroke-dasharray:none;stroke-opacity:1"
         d="m 364.365,-329.856 0,-1784.154" /></g><g
       transform="scale(0.0998677,-0.100132)"
       id="g112"><path
         inkscape:connector-curvature="0"
         id="path114"
         style="fill:none;stroke:#262626;stroke-width:5.00403976;stroke-linecap:square;stroke-linejoin:round;stroke-miterlimit:10;stroke-dasharray:none;stroke-opacity:1"
         d="m 364.365,-329.856 26.371,0" /></g><g
       transform="scale(0.0998677,-0.100132)"
       id="g116"><path
         inkscape:connector-curvature="0"
         id="path118"
         style="fill:none;stroke:#262626;stroke-width:5.00403976;stroke-linecap:square;stroke-linejoin:round;stroke-miterlimit:10;stroke-dasharray:none;stroke-opacity:1"
         d="m 364.365,-627.217 26.371,0" /></g><g
       transform="scale(0.0998677,-0.100132)"
       id="g120"><path
         inkscape:connector-curvature="0"
         id="path122"
         style="fill:none;stroke:#262626;stroke-width:5.00403976;stroke-linecap:square;stroke-linejoin:round;stroke-miterlimit:10;stroke-dasharray:none;stroke-opacity:1"
         d="m 364.365,-924.573 26.371,0" /></g><g
       transform="scale(0.0998677,-0.100132)"
       id="g124"><path
         inkscape:connector-curvature="0"
         id="path126"
         style="fill:none;stroke:#262626;stroke-width:5.00403976;stroke-linecap:square;stroke-linejoin:round;stroke-miterlimit:10;stroke-dasharray:none;stroke-opacity:1"
         d="m 364.365,-1221.93 26.371,0" /></g><g
       transform="scale(0.0998677,-0.100132)"
       id="g128"><path
         inkscape:connector-curvature="0"
         id="path130"
         style="fill:none;stroke:#262626;stroke-width:5.00403976;stroke-linecap:square;stroke-linejoin:round;stroke-miterlimit:10;stroke-dasharray:none;stroke-opacity:1"
         d="m 364.365,-1519.29 26.371,0" /></g><g
       transform="scale(0.0998677,-0.100132)"
       id="g132"><path
         inkscape:connector-curvature="0"
         id="path134"
         style="fill:none;stroke:#262626;stroke-width:5.00403976;stroke-linecap:square;stroke-linejoin:round;stroke-miterlimit:10;stroke-dasharray:none;stroke-opacity:1"
         d="m 364.365,-1816.65 26.371,0" /></g><g
       transform="scale(0.0998677,-0.100132)"
       id="g136"><path
         inkscape:connector-curvature="0"
         id="path138"
         style="fill:none;stroke:#262626;stroke-width:5.00403976;stroke-linecap:square;stroke-linejoin:round;stroke-miterlimit:10;stroke-dasharray:none;stroke-opacity:1"
         d="m 364.365,-2114.01 26.371,0" /></g><g
       id="g140"><text
         id="text142"
         style="font-variant:normal;font-weight:normal;font-size:10.0255003px;font-family:Helvetica;-inkscape-font-specification:Helvetica;writing-mode:lr-tb;fill:#262626;fill-opacity:1;fill-rule:nonzero;stroke:none"
         transform="matrix(0.997357,0,0,-1,22.7895,28.8199)"><tspan
           id="tspan144"
           sodipodi:role="line"
           y="0"
           x="0 3.3384914">-2</tspan><tspan
           id="tspan146"
           sodipodi:role="line"
           y="-29.775"
           x="-8.4210901 -5.0825987 0.4915795 3.2786684">-1.5</tspan><tspan
           id="tspan148"
           sodipodi:role="line"
           y="-59.549999"
           x="0 3.3384914">-1</tspan><tspan
           id="tspan150"
           sodipodi:role="line"
           y="-89.324997"
           x="-8.4210901 -5.0825987 0.4915795 3.2786684">-0.5</tspan><tspan
           id="tspan152"
           y="-119.1"
           x="3.6091101">0</tspan><tspan
           id="tspan154"
           sodipodi:role="line"
           y="-148.8754"
           x="-4.8123698 0.76180798 3.548897">0.5</tspan><tspan
           id="tspan156"
           y="-178.65041"
           x="3.6091101">1</tspan></text>
<text
         id="text158"
         style="font-variant:normal;font-weight:normal;font-size:11.02764606px;font-family:Helvetica;-inkscape-font-specification:Helvetica;writing-mode:lr-tb;fill:#262626;fill-opacity:1;fill-rule:nonzero;stroke:none"
         transform="matrix(0,1,0.997357,0,8.99141,109.423)"><tspan
           id="tspan160"
           sodipodi:role="line"
           y="0"
           x="0 7.3554397 10.421125 16.552496 19.618183">State</tspan></text>
</g><g
       transform="scale(0.0998677,-0.100132)"
       id="g162"><path
         inkscape:connector-curvature="0"
         id="path164"
         style="fill:none;stroke:#0072bd;stroke-width:20.02219963;stroke-linecap:butt;stroke-linejoin:bevel;stroke-miterlimit:10;stroke-dasharray:72.087, 72.087;stroke-dashoffset:0;stroke-opacity:1"
         d="m 364.365,-1830.68 19.678,9.36 19.679,29.58 19.682,54.73 19.678,79.48 19.687,87.97 19.678,76.51 19.682,55.88 19.679,35.25 19.678,18.91 19.682,6.89 19.679,-1.72 19.682,-7.65 19.682,-11.18 19.683,-12.5 19.678,-11.98 19.678,-10.27 19.683,-8.39 19.678,-7.08 19.679,-6.35 19.682,-5.88 19.686,-5.55 19.678,-5.28 19.679,-5.03 19.682,-4.78 19.679,-4.52 19.678,-4.26 19.682,-4.01 19.679,-3.76 19.682,-3.51 19.682,-3.26 19.682,-3.02 19.679,-2.81 19.68,-2.59 19.68,-2.38 19.68,-2.18 19.68,-1.98 19.68,-1.82 19.69,-1.65 19.67,-1.49 19.68,-1.34 19.68,-1.2 19.68,-1.08 19.69,-0.94 19.67,-0.83 19.68,-0.73 19.68,-0.62 19.69,-0.54 19.68,-0.45 19.68,-0.36 19.68,-0.3 19.68,-0.23 19.68,-0.16 19.68,-0.11 19.68,-0.06 19.68,0 19.68,0.04 19.68,0.07 19.68,0.12 19.68,0.14 19.68,0.17 19.68,0.2 19.68,0.22 19.69,0.23 19.67,0.27 19.69,0.27 19.68,0.28 19.67,0.28 19.69,0.31 19.67,0.31 19.69,0.31 19.68,0.31 19.68,0.32 19.68,0.32 19.68,0.32 19.68,0.32 19.68,0.31 19.68,0.31 19.68,0.31 19.68,0.3 19.68,0.29 19.68,0.29 19.68,0.29 19.68,0.28 19.69,0.27 19.67,0.26 19.68,0.26 19.68,0.24 19.68,0.25 19.69,0.23 19.68,0.23 19.68,0.22 19.68,0.21 19.68,0.19 19.68,0.2 19.68,0.18 19.68,0.18 19.68,0.17 19.68,0.16 19.68,0.16 19.68,0.15 19.68,0.13 19.68,0.14 19.68,0.12 19.68,0.13 19.68,0.11 19.69,0.11 19.68,0.1 19.68,0.1 19.68,0.09 19.67,0.08 19.69,0.08 19.68,0.08 19.68,0.07 19.68,0.07 19.68,0.06 19.68,0.05 19.68,0.06 19.68,0.05 19.68,0.04 19.68,0.04 19.68,0.05 19.68,0.03 19.68,0.04 19.68,0.03 19.69,0.02 19.67,0.03 19.68,0.03 19.68,0.02 19.68,0.01 19.69,0.02 19.68,0.01 19.68,0.02 19.68,0.01 19.68,0.01" /></g><g
       transform="scale(0.0998677,-0.100132)"
       id="g166"><path
         inkscape:connector-curvature="0"
         id="path168"
         style="fill:none;stroke:#d95319;stroke-width:20.02219963;stroke-linecap:butt;stroke-linejoin:round;stroke-miterlimit:10;stroke-dasharray:none;stroke-opacity:1"
         d="m 364.365,-1519.29 19.678,21.16 19.679,64.44 19.682,110.93 19.678,152.33 19.687,169.75 19.678,160.093 19.682,136.215 19.679,109.078 19.678,84.47 19.682,63.443 19.679,45.768 19.682,31.236 19.682,19.79 19.683,11.466 19.678,5.906 19.678,2.325 19.683,-0.492 19.678,-3.48 19.679,-6.678 19.682,-9.835 19.686,-12.799 19.678,-15.527 19.679,-17.964 19.682,-20.149 19.679,-22.049 19.678,-23.707 19.682,-25.123 19.679,-26.325 19.682,-27.327 19.682,-28.13 19.682,-28.775 19.679,-29.25 19.68,-29.594 19.68,-29.796 19.68,-29.879 19.68,-29.855 19.68,-29.738 19.69,-29.519 19.67,-29.223 19.68,-28.861 19.68,-28.431 19.68,-27.939 19.69,-27.413 19.67,-26.82 19.68,-26.212 19.68,-25.56 19.69,-24.88 19.68,-24.19 19.68,-23.46 19.68,-22.74 19.68,-21.99 19.68,-21.25 19.68,-20.5 19.68,-19.74 19.68,-19 19.68,-18.25 19.68,-17.51 19.68,-16.79 19.68,-16.06 19.68,-15.36 19.68,-14.65 19.68,-13.98 19.69,-13.32 19.67,-12.66 19.69,-12.03 19.68,-11.41 19.67,-10.82 19.69,-10.23 19.67,-9.67 19.69,-9.14 19.68,-8.61 19.68,-8.09 19.68,-7.62 19.68,-7.15 19.68,-6.7 19.68,-6.26 19.68,-5.86 19.68,-5.46 19.68,-5.09 19.68,-4.73 19.68,-4.37 19.68,-4.06 19.68,-3.75 19.69,-3.46 19.67,-3.17 19.68,-2.92 19.68,-2.66 19.68,-2.42 19.69,-2.21 19.68,-1.99 19.68,-1.8 19.68,-1.61 19.68,-1.43 19.68,-1.28 19.68,-1.12 19.68,-0.98 19.68,-0.86 19.68,-0.72 19.68,-0.62 19.68,-0.5 19.68,-0.41 19.68,-0.32 19.68,-0.24 19.68,-0.16 19.68,-0.09 19.69,-0.03 19.68,0.04 19.68,0.08 19.68,0.14 19.67,0.17 19.69,0.21 19.68,0.25 19.68,0.27 19.68,0.31 19.68,0.32 19.68,0.35 19.68,0.36 19.68,0.37 19.68,0.39 19.68,0.4 19.68,0.4 19.68,0.41 19.68,0.41 19.68,0.42 19.69,0.41 19.67,0.41 19.68,0.41 19.68,0.4 19.68,0.4 19.69,0.39 19.68,0.39 19.68,0.38 19.68,0.37 19.68,0.36" /></g><path
       inkscape:connector-curvature="0"
       id="path170"
       style="fill:#ffffff;fill-opacity:1;fill-rule:nonzero;stroke:none"
       d="m 249.963,167.168 39.5953,0 0,34.2867 -39.5953,0 0,-34.2867 z" /><g
       id="g172"><text
         id="text174"
         style="font-variant:normal;font-weight:normal;font-size:9.02280045px;font-family:Helvetica;-inkscape-font-specification:Helvetica;writing-mode:lr-tb;fill:#000000;fill-opacity:1;fill-rule:nonzero;stroke:none"
         transform="matrix(0.997357,0,0,-1,277.558,190.628)"><tspan
           id="tspan176"
           y="0"
           x="0">x</tspan></text>
<text
         id="text178"
         style="font-variant:normal;font-weight:normal;font-size:7.21823978px;font-family:Helvetica;-inkscape-font-specification:Helvetica;writing-mode:lr-tb;fill:#000000;fill-opacity:1;fill-rule:nonzero;stroke:none"
         transform="matrix(0.997357,0,0,-1,282.357,186.417)"><tspan
           id="tspan180"
           y="0"
           x="0">1</tspan></text>
</g><g
       transform="scale(0.0998677,-0.100132)"
       id="g182"><path
         inkscape:connector-curvature="0"
         id="path184"
         style="fill:none;stroke:#0072bd;stroke-width:20.02219963;stroke-linecap:butt;stroke-linejoin:bevel;stroke-miterlimit:10;stroke-dasharray:72.087, 72.087;stroke-dashoffset:0;stroke-opacity:1"
         d="m 2532.87,-1919.78 224.42,0" /></g><g
       id="g186"><text
         id="text188"
         style="font-variant:normal;font-weight:normal;font-size:9.02280045px;font-family:Helvetica;-inkscape-font-specification:Helvetica;writing-mode:lr-tb;fill:#000000;fill-opacity:1;fill-rule:nonzero;stroke:none"
         transform="matrix(0.997357,0,0,-1,277.558,174.387)"><tspan
           id="tspan190"
           y="0"
           x="0">x</tspan></text>
<text
         id="text192"
         style="font-variant:normal;font-weight:normal;font-size:7.21823978px;font-family:Helvetica;-inkscape-font-specification:Helvetica;writing-mode:lr-tb;fill:#000000;fill-opacity:1;fill-rule:nonzero;stroke:none"
         transform="matrix(0.997357,0,0,-1,282.357,170.176)"><tspan
           id="tspan194"
           y="0"
           x="0">3</tspan></text>
</g><g
       transform="scale(0.0998677,-0.100132)"
       id="g196"><path
         inkscape:connector-curvature="0"
         id="path198"
         style="fill:none;stroke:#d95319;stroke-width:20.02219963;stroke-linecap:butt;stroke-linejoin:round;stroke-miterlimit:10;stroke-dasharray:none;stroke-opacity:1"
         d="m 2532.87,-1761.57 224.42,0" /></g><g
       transform="scale(0.0998677,-0.100132)"
       id="g200"><path
         inkscape:connector-curvature="0"
         id="path202"
         style="fill:none;stroke:#262626;stroke-width:5.00403976;stroke-linecap:butt;stroke-linejoin:miter;stroke-miterlimit:10;stroke-dasharray:none;stroke-opacity:1"
         d="m 2502.95,-1669.47 0,-342.42 396.47,0 0,342.42 -396.47,0 z" /></g></g></svg>