<?xml version="1.0" encoding="UTF-8" standalone="no"?>
<!-- Created with Inkscape (http://www.inkscape.org/) -->

<svg
   xmlns:dc="http://purl.org/dc/elements/1.1/"
   xmlns:cc="http://creativecommons.org/ns#"
   xmlns:rdf="http://www.w3.org/1999/02/22-rdf-syntax-ns#"
   xmlns:svg="http://www.w3.org/2000/svg"
   xmlns="http://www.w3.org/2000/svg"
   xmlns:sodipodi="http://sodipodi.sourceforge.net/DTD/sodipodi-0.dtd"
   xmlns:inkscape="http://www.inkscape.org/namespaces/inkscape"
   id="svg3336"
   version="1.1"
   inkscape:version="0.91 r13725"
   xml:space="preserve"
   width="378.00284"
   height="266.80075"
   viewBox="0 0 378.00283 266.80075"
   sodipodi:docname="states.svg"><metadata
     id="metadata3342"><rdf:RDF><cc:Work
         rdf:about=""><dc:format>image/svg+xml</dc:format><dc:type
           rdf:resource="http://purl.org/dc/dcmitype/StillImage" /><dc:title></dc:title></cc:Work></rdf:RDF></metadata><defs
     id="defs3340" /><sodipodi:namedview
     pagecolor="#ffffff"
     bordercolor="#666666"
     borderopacity="1"
     objecttolerance="10"
     gridtolerance="10"
     guidetolerance="10"
     inkscape:pageopacity="0"
     inkscape:pageshadow="2"
     inkscape:window-width="1536"
     inkscape:window-height="801"
     id="namedview3338"
     showgrid="false"
     fit-margin-top="0"
     fit-margin-left="0"
     fit-margin-right="0"
     fit-margin-bottom="0"
     inkscape:zoom="2.3621461"
     inkscape:cx="189.53225"
     inkscape:cy="132.65559"
     inkscape:window-x="-8"
     inkscape:window-y="-8"
     inkscape:window-maximized="1"
     inkscape:current-layer="g3346" /><g
     id="g3344"
     inkscape:groupmode="layer"
     inkscape:label="nu_comparison"
     transform="matrix(1.25,0,0,-1.25,-1.2302516,268.34517)"><g
       id="g3346"
       transform="scale(0.1,0.1)"><path
         d="m 363.883,330.293 2633.69,0 0,1786.52 -2633.69,0 0,-1786.52 z"
         style="fill:#ffffff;fill-opacity:1;fill-rule:nonzero;stroke:none"
         id="path3350"
         inkscape:connector-curvature="0" /><g
         id="g3352"
         transform="scale(0.998677,-1.00132)"><path
           d="m 364.365,-329.856 0,-1784.154"
           style="fill:none;stroke:#dfdfdf;stroke-width:5.00403976;stroke-linecap:butt;stroke-linejoin:round;stroke-miterlimit:10;stroke-dasharray:none;stroke-opacity:1"
           id="path3354"
           inkscape:connector-curvature="0" /></g><g
         id="g3356"
         transform="scale(0.998677,-1.00132)"><path
           d="m 889.177,-329.856 0,-1784.154"
           style="fill:none;stroke:#dfdfdf;stroke-width:5.00403976;stroke-linecap:butt;stroke-linejoin:round;stroke-miterlimit:10;stroke-dasharray:none;stroke-opacity:1"
           id="path3358"
           inkscape:connector-curvature="0" /></g><g
         id="g3360"
         transform="scale(0.998677,-1.00132)"><path
           d="m 1413.99,-329.856 0,-1784.154"
           style="fill:none;stroke:#dfdfdf;stroke-width:5.00403976;stroke-linecap:butt;stroke-linejoin:round;stroke-miterlimit:10;stroke-dasharray:none;stroke-opacity:1"
           id="path3362"
           inkscape:connector-curvature="0" /></g><g
         id="g3364"
         transform="scale(0.998677,-1.00132)"><path
           d="m 1938.8,-329.856 0,-1784.154"
           style="fill:none;stroke:#dfdfdf;stroke-width:5.00403976;stroke-linecap:butt;stroke-linejoin:round;stroke-miterlimit:10;stroke-dasharray:none;stroke-opacity:1"
           id="path3366"
           inkscape:connector-curvature="0" /></g><g
         id="g3368"
         transform="scale(0.998677,-1.00132)"><path
           d="m 2463.62,-329.856 0,-1784.154"
           style="fill:none;stroke:#dfdfdf;stroke-width:5.00403976;stroke-linecap:butt;stroke-linejoin:round;stroke-miterlimit:10;stroke-dasharray:none;stroke-opacity:1"
           id="path3370"
           inkscape:connector-curvature="0" /></g><g
         id="g3372"
         transform="scale(0.998677,-1.00132)"><path
           d="m 2988.43,-329.856 0,-1784.154"
           style="fill:none;stroke:#dfdfdf;stroke-width:5.00403976;stroke-linecap:butt;stroke-linejoin:round;stroke-miterlimit:10;stroke-dasharray:none;stroke-opacity:1"
           id="path3374"
           inkscape:connector-curvature="0" /></g><g
         id="g3376"
         transform="scale(0.998677,-1.00132)"><path
           d="m 3001.55,-329.856 -2637.185,0"
           style="fill:none;stroke:#dfdfdf;stroke-width:5.00403976;stroke-linecap:butt;stroke-linejoin:round;stroke-miterlimit:10;stroke-dasharray:none;stroke-opacity:1"
           id="path3378"
           inkscape:connector-curvature="0" /></g><g
         id="g3380"
         transform="scale(0.998677,-1.00132)"><path
           d="m 3001.55,-627.217 -2637.185,0"
           style="fill:none;stroke:#dfdfdf;stroke-width:5.00403976;stroke-linecap:butt;stroke-linejoin:round;stroke-miterlimit:10;stroke-dasharray:none;stroke-opacity:1"
           id="path3382"
           inkscape:connector-curvature="0" /></g><g
         id="g3384"
         transform="scale(0.998677,-1.00132)"><path
           d="m 3001.55,-924.573 -2637.185,0"
           style="fill:none;stroke:#dfdfdf;stroke-width:5.00403976;stroke-linecap:butt;stroke-linejoin:round;stroke-miterlimit:10;stroke-dasharray:none;stroke-opacity:1"
           id="path3386"
           inkscape:connector-curvature="0" /></g><g
         id="g3388"
         transform="scale(0.998677,-1.00132)"><path
           d="m 3001.55,-1221.93 -2637.185,0"
           style="fill:none;stroke:#dfdfdf;stroke-width:5.00403976;stroke-linecap:butt;stroke-linejoin:round;stroke-miterlimit:10;stroke-dasharray:none;stroke-opacity:1"
           id="path3390"
           inkscape:connector-curvature="0" /></g><g
         id="g3392"
         transform="scale(0.998677,-1.00132)"><path
           d="m 3001.55,-1519.29 -2637.185,0"
           style="fill:none;stroke:#dfdfdf;stroke-width:5.00403976;stroke-linecap:butt;stroke-linejoin:round;stroke-miterlimit:10;stroke-dasharray:none;stroke-opacity:1"
           id="path3394"
           inkscape:connector-curvature="0" /></g><g
         id="g3396"
         transform="scale(0.998677,-1.00132)"><path
           d="m 3001.55,-1816.65 -2637.185,0"
           style="fill:none;stroke:#dfdfdf;stroke-width:5.00403976;stroke-linecap:butt;stroke-linejoin:round;stroke-miterlimit:10;stroke-dasharray:none;stroke-opacity:1"
           id="path3398"
           inkscape:connector-curvature="0" /></g><g
         id="g3400"
         transform="scale(0.998677,-1.00132)"><path
           d="m 3001.55,-2114.01 -2637.185,0"
           style="fill:none;stroke:#dfdfdf;stroke-width:5.00403976;stroke-linecap:butt;stroke-linejoin:round;stroke-miterlimit:10;stroke-dasharray:none;stroke-opacity:1"
           id="path3402"
           inkscape:connector-curvature="0" /></g><g
         id="g3404"
         transform="scale(0.998677,-1.00132)"><path
           d="m 364.365,-329.856 2637.185,0"
           style="fill:none;stroke:#262626;stroke-width:5.00403976;stroke-linecap:square;stroke-linejoin:round;stroke-miterlimit:10;stroke-dasharray:none;stroke-opacity:1"
           id="path3406"
           inkscape:connector-curvature="0" /></g><g
         id="g3408"
         transform="scale(0.998677,-1.00132)"><path
           d="m 364.365,-329.856 0,-26.372"
           style="fill:none;stroke:#262626;stroke-width:5.00403976;stroke-linecap:square;stroke-linejoin:round;stroke-miterlimit:10;stroke-dasharray:none;stroke-opacity:1"
           id="path3410"
           inkscape:connector-curvature="0" /></g><g
         id="g3412"
         transform="scale(0.998677,-1.00132)"><path
           d="m 889.177,-329.856 0,-26.372"
           style="fill:none;stroke:#262626;stroke-width:5.00403976;stroke-linecap:square;stroke-linejoin:round;stroke-miterlimit:10;stroke-dasharray:none;stroke-opacity:1"
           id="path3414"
           inkscape:connector-curvature="0" /></g><g
         id="g3416"
         transform="scale(0.998677,-1.00132)"><path
           d="m 1413.99,-329.856 0,-26.372"
           style="fill:none;stroke:#262626;stroke-width:5.00403976;stroke-linecap:square;stroke-linejoin:round;stroke-miterlimit:10;stroke-dasharray:none;stroke-opacity:1"
           id="path3418"
           inkscape:connector-curvature="0" /></g><g
         id="g3420"
         transform="scale(0.998677,-1.00132)"><path
           d="m 1938.8,-329.856 0,-26.372"
           style="fill:none;stroke:#262626;stroke-width:5.00403976;stroke-linecap:square;stroke-linejoin:round;stroke-miterlimit:10;stroke-dasharray:none;stroke-opacity:1"
           id="path3422"
           inkscape:connector-curvature="0" /></g><g
         id="g3424"
         transform="scale(0.998677,-1.00132)"><path
           d="m 2463.62,-329.856 0,-26.372"
           style="fill:none;stroke:#262626;stroke-width:5.00403976;stroke-linecap:square;stroke-linejoin:round;stroke-miterlimit:10;stroke-dasharray:none;stroke-opacity:1"
           id="path3426"
           inkscape:connector-curvature="0" /></g><g
         id="g3428"
         transform="scale(0.998677,-1.00132)"><path
           d="m 2988.43,-329.856 0,-26.372"
           style="fill:none;stroke:#262626;stroke-width:5.00403976;stroke-linecap:square;stroke-linejoin:round;stroke-miterlimit:10;stroke-dasharray:none;stroke-opacity:1"
           id="path3430"
           inkscape:connector-curvature="0" /></g><g
         id="g3432"
         transform="scale(10,10)"><text
           transform="matrix(0.997357,0,0,-1,33.3883,18.193)"
           style="font-variant:normal;font-weight:normal;font-size:10.0255003px;font-family:Helvetica;-inkscape-font-specification:Helvetica;writing-mode:lr-tb;fill:#262626;fill-opacity:1;fill-rule:nonzero;stroke:none"
           id="text3434"><tspan
             x="0 52.55006 105.10012 157.65019 210.20024 260.04352 265.61771"
             y="0"
             sodipodi:role="line"
             id="tspan3436">0246810</tspan></text>
<text
           transform="matrix(0.997357,0,0,-1,148.27385,3.5563)"
           style="font-variant:normal;font-weight:normal;font-size:11.02770042px;font-family:Helvetica;-inkscape-font-specification:Helvetica;writing-mode:lr-tb;fill:#262626;fill-opacity:1;fill-rule:nonzero;stroke:none"
           id="text3438"><tspan
             x="0 6.7379246 9.1860743 18.372149 24.50355 27.56925 31.241474 36.755325"
             y="0"
             sodipodi:role="line"
             id="tspan3440">Time (s)</tspan></text>
</g><g
         id="g3442"
         transform="scale(0.998677,-1.00132)"><path
           d="m 364.365,-329.856 0,-1784.154"
           style="fill:none;stroke:#262626;stroke-width:5.00403976;stroke-linecap:square;stroke-linejoin:round;stroke-miterlimit:10;stroke-dasharray:none;stroke-opacity:1"
           id="path3444"
           inkscape:connector-curvature="0" /></g><g
         id="g3446"
         transform="scale(0.998677,-1.00132)"><path
           d="m 364.365,-329.856 26.371,0"
           style="fill:none;stroke:#262626;stroke-width:5.00403976;stroke-linecap:square;stroke-linejoin:round;stroke-miterlimit:10;stroke-dasharray:none;stroke-opacity:1"
           id="path3448"
           inkscape:connector-curvature="0" /></g><g
         id="g3450"
         transform="scale(0.998677,-1.00132)"><path
           d="m 364.365,-627.217 26.371,0"
           style="fill:none;stroke:#262626;stroke-width:5.00403976;stroke-linecap:square;stroke-linejoin:round;stroke-miterlimit:10;stroke-dasharray:none;stroke-opacity:1"
           id="path3452"
           inkscape:connector-curvature="0" /></g><g
         id="g3454"
         transform="scale(0.998677,-1.00132)"><path
           d="m 364.365,-924.573 26.371,0"
           style="fill:none;stroke:#262626;stroke-width:5.00403976;stroke-linecap:square;stroke-linejoin:round;stroke-miterlimit:10;stroke-dasharray:none;stroke-opacity:1"
           id="path3456"
           inkscape:connector-curvature="0" /></g><g
         id="g3458"
         transform="scale(0.998677,-1.00132)"><path
           d="m 364.365,-1221.93 26.371,0"
           style="fill:none;stroke:#262626;stroke-width:5.00403976;stroke-linecap:square;stroke-linejoin:round;stroke-miterlimit:10;stroke-dasharray:none;stroke-opacity:1"
           id="path3460"
           inkscape:connector-curvature="0" /></g><g
         id="g3462"
         transform="scale(0.998677,-1.00132)"><path
           d="m 364.365,-1519.29 26.371,0"
           style="fill:none;stroke:#262626;stroke-width:5.00403976;stroke-linecap:square;stroke-linejoin:round;stroke-miterlimit:10;stroke-dasharray:none;stroke-opacity:1"
           id="path3464"
           inkscape:connector-curvature="0" /></g><g
         id="g3466"
         transform="scale(0.998677,-1.00132)"><path
           d="m 364.365,-1816.65 26.371,0"
           style="fill:none;stroke:#262626;stroke-width:5.00403976;stroke-linecap:square;stroke-linejoin:round;stroke-miterlimit:10;stroke-dasharray:none;stroke-opacity:1"
           id="path3468"
           inkscape:connector-curvature="0" /></g><g
         id="g3470"
         transform="scale(0.998677,-1.00132)"><path
           d="m 364.365,-2114.01 26.371,0"
           style="fill:none;stroke:#262626;stroke-width:5.00403976;stroke-linecap:square;stroke-linejoin:round;stroke-miterlimit:10;stroke-dasharray:none;stroke-opacity:1"
           id="path3472"
           inkscape:connector-curvature="0" /></g><g
         id="g3474"
         transform="scale(10,10)"><text
           transform="matrix(0.997357,0,0,-1,22.7895,28.8199)"
           style="font-variant:normal;font-weight:normal;font-size:10.0255003px;font-family:Helvetica;-inkscape-font-specification:Helvetica;writing-mode:lr-tb;fill:#262626;fill-opacity:1;fill-rule:nonzero;stroke:none"
           id="text3476"><tspan
             x="0 3.3384914"
             y="0"
             sodipodi:role="line"
             id="tspan3478">-2</tspan><tspan
             x="-8.4210901 -5.0825987 0.4915795 3.2786684"
             y="-29.775"
             sodipodi:role="line"
             id="tspan3480">-1.5</tspan><tspan
             x="0 3.3384914"
             y="-59.549999"
             sodipodi:role="line"
             id="tspan3482">-1</tspan><tspan
             x="-8.4210901 -5.0825987 0.4915795 3.2786684"
             y="-89.324997"
             sodipodi:role="line"
             id="tspan3484">-0.5</tspan><tspan
             x="3.6091101"
             y="-119.1"
             id="tspan3486">0</tspan><tspan
             x="-4.8123698 0.76180798 3.548897"
             y="-148.8754"
             sodipodi:role="line"
             id="tspan3488">0.5</tspan><tspan
             x="3.6091101"
             y="-178.65041"
             id="tspan3490">1</tspan></text>
<text
           transform="matrix(0,1,0.997357,0,8.99141,109.423)"
           style="font-variant:normal;font-weight:normal;font-size:11.02764606px;font-family:Helvetica;-inkscape-font-specification:Helvetica;writing-mode:lr-tb;fill:#262626;fill-opacity:1;fill-rule:nonzero;stroke:none"
           id="text3492"><tspan
             x="0 7.3554397 10.421125 16.552496 19.618183"
             y="0"
             sodipodi:role="line"
             id="tspan3494">State</tspan></text>
</g><g
         id="g3496"
         transform="scale(0.998677,-1.00132)"><path
           d="m 364.365,-1830.68 39.357,38.94 39.36,121.16 39.365,156.89 39.361,107.92 39.36,38.7 39.361,-14.31 39.365,-39.12 39.356,-35.08 39.361,-22 39.361,-13.41 39.364,-7.59 39.361,-3.32 39.357,0.25 39.361,2.82 39.364,2.78 39.361,1.1 39.36,-0.54 39.36,-1.7 39.37,-2.38 39.35,-2.7 39.36,-2.8 39.36,-2.75 39.36,-2.62 39.37,-2.44 39.36,-2.24 39.36,-2.03 39.36,-1.83 39.36,-1.63 39.36,-1.45 39.36,-1.26 39.36,-1.1 39.36,-0.93 39.37,-0.79 39.36,-0.65 39.36,-0.52 39.36,-0.4 39.36,-0.3 39.36,-0.2 39.36,-0.12 39.36,-0.03 39.36,0.04 39.37,0.1 39.35,0.16 39.36,0.2 39.37,0.24 39.36,0.28 39.36,0.31 39.36,0.32 39.36,0.35 39.36,0.36 39.36,0.37 39.36,0.38 39.37,0.37 39.36,0.38 39.35,0.37 39.37,0.37 39.36,0.37 39.36,0.34 39.36,0.34 39.36,0.33 39.36,0.31 39.36,0.3 39.36,0.28 39.36,0.28 39.37,0.25 39.36,0.23 39.36,0.22"
           style="fill:none;stroke:#0072bd;stroke-width:20.02219963;stroke-linecap:butt;stroke-linejoin:bevel;stroke-miterlimit:10;stroke-dasharray:72.087, 72.087;stroke-dashoffset:0;stroke-opacity:1"
           id="path3498"
           inkscape:connector-curvature="0" /></g><g
         id="g3500"
         transform="scale(0.998677,-1.00132)"><path
           d="m 364.365,-1519.29 39.357,85.6 39.36,248.06 39.365,323.556 39.361,269.651 39.36,168.859 39.361,75.997 39.365,17.687 39.356,0.004 39.361,0 39.361,0.008 39.364,0.004 39.361,0 39.357,0.008 39.361,-1.143 39.364,-5.692 39.361,-12.624 39.36,-19.751 39.36,-26.239 39.37,-31.856 39.35,-36.553 39.36,-40.412 39.36,-43.489 39.36,-45.869 39.37,-47.64 39.36,-48.838 39.36,-49.536 39.36,-49.797 39.36,-49.653 39.36,-49.158 39.36,-48.358 39.36,-47.281 39.36,-45.985 39.37,-44.49 39.36,-42.83 39.36,-41.04 39.36,-39.15 39.36,-37.18 39.36,-35.15 39.36,-33.09 39.36,-31.01 39.36,-28.95 39.37,-26.87 39.35,-24.86 39.36,-22.87 39.37,-20.93 39.36,-19.06 39.36,-17.25 39.36,-15.53 39.36,-13.87 39.36,-12.29 39.36,-10.81 39.36,-9.4 39.37,-8.08 39.36,-6.85 39.35,-5.71 39.37,-4.65 39.36,-3.67 39.36,-2.79 39.36,-1.95 39.36,-1.23 39.36,-0.56 39.36,0.04 39.36,0.58 39.36,1.03 39.37,1.45 39.36,1.8 39.36,2.09"
           style="fill:none;stroke:#d95319;stroke-width:20.02219963;stroke-linecap:butt;stroke-linejoin:round;stroke-miterlimit:10;stroke-dasharray:none;stroke-opacity:1"
           id="path3502"
           inkscape:connector-curvature="0" /></g><path
         d="m 2499.63,1671.68 395.953,0 0,342.867 -395.953,0 0,-342.867 z"
         style="fill:#ffffff;fill-opacity:1;fill-rule:nonzero;stroke:none"
         id="path3504"
         inkscape:connector-curvature="0" /><g
         id="g3506"
         transform="scale(10,10)"><text
           transform="matrix(0.997357,0,0,-1,277.558,190.628)"
           style="font-variant:normal;font-weight:normal;font-size:9.02280045px;font-family:Helvetica;-inkscape-font-specification:Helvetica;writing-mode:lr-tb;fill:#000000;fill-opacity:1;fill-rule:nonzero;stroke:none"
           id="text3508"><tspan
             x="0"
             y="0"
             id="tspan3510">x</tspan></text>
<text
           transform="matrix(0.997357,0,0,-1,282.357,186.417)"
           style="font-variant:normal;font-weight:normal;font-size:7.21823978px;font-family:Helvetica;-inkscape-font-specification:Helvetica;writing-mode:lr-tb;fill:#000000;fill-opacity:1;fill-rule:nonzero;stroke:none"
           id="text3512"><tspan
             x="0"
             y="0"
             id="tspan3514">1</tspan></text>
</g><g
         id="g3516"
         transform="scale(0.998677,-1.00132)"><path
           d="m 2532.87,-1919.78 224.42,0"
           style="fill:none;stroke:#0072bd;stroke-width:20.02219963;stroke-linecap:butt;stroke-linejoin:bevel;stroke-miterlimit:10;stroke-dasharray:72.087, 72.087;stroke-dashoffset:0;stroke-opacity:1"
           id="path3518"
           inkscape:connector-curvature="0" /></g><g
         id="g3520"
         transform="scale(10,10)"><text
           transform="matrix(0.997357,0,0,-1,277.558,174.387)"
           style="font-variant:normal;font-weight:normal;font-size:9.02280045px;font-family:Helvetica;-inkscape-font-specification:Helvetica;writing-mode:lr-tb;fill:#000000;fill-opacity:1;fill-rule:nonzero;stroke:none"
           id="text3522"><tspan
             x="0"
             y="0"
             id="tspan3524">x</tspan></text>
<text
           transform="matrix(0.997357,0,0,-1,282.357,170.176)"
           style="font-variant:normal;font-weight:normal;font-size:7.21823978px;font-family:Helvetica;-inkscape-font-specification:Helvetica;writing-mode:lr-tb;fill:#000000;fill-opacity:1;fill-rule:nonzero;stroke:none"
           id="text3526"><tspan
             x="0"
             y="0"
             id="tspan3528">3</tspan></text>
</g><g
         id="g3530"
         transform="scale(0.998677,-1.00132)"><path
           d="m 2532.87,-1761.57 224.42,0"
           style="fill:none;stroke:#d95319;stroke-width:20.02219963;stroke-linecap:butt;stroke-linejoin:round;stroke-miterlimit:10;stroke-dasharray:none;stroke-opacity:1"
           id="path3532"
           inkscape:connector-curvature="0" /></g><g
         id="g3534"
         transform="scale(0.998677,-1.00132)"><path
           d="m 2502.95,-1669.47 0,-342.42 396.47,0 0,342.42 -396.47,0 z"
           style="fill:none;stroke:#262626;stroke-width:5.00403976;stroke-linecap:butt;stroke-linejoin:miter;stroke-miterlimit:10;stroke-dasharray:none;stroke-opacity:1"
           id="path3536"
           inkscape:connector-curvature="0" /></g></g></g></svg>